<?xml version="1.0" encoding="UTF-8"?>
<svg id="spinner2" width="128pt" height="128pt" version="1.1" viewBox="0 0 128 128" xmlns="http://www.w3.org/2000/svg">
 <g fill="#fff">
  <path d="m108.8 43.902c1.0234 0 1.9219-0.25781 2.9453-0.76953 2.8164-1.6641 3.7109-5.1211 2.0469-7.8086-1.6641-2.8164-5.1211-3.7109-7.8086-2.0469-2.8164 1.5352-3.7109 5.1211-2.0469 7.9375 0.89453 1.6641 2.8164 2.6875 4.8633 2.6875z"/>
  <path d="m86.91 24.191c0.89453 0.51172 1.9219 0.76953 2.9453 0.76953 1.9219 0 3.9688-1.0234 4.9922-2.9453 1.5352-2.6875 0.64062-6.2734-2.0469-7.8086-2.8164-1.5352-6.2734-0.64062-7.9375 2.0469-1.5352 2.8164-0.64062 6.2734 2.0469 7.9375z"/>
  <path d="m64 121.47c31.742 0 57.473-25.727 57.473-57.473 0-3.1992-2.5586-5.7617-5.7617-5.7617-3.1992 0-5.7617 2.5586-5.7617 5.7617 0 25.344-20.609 45.953-45.953 45.953-25.34 0-45.949-20.609-45.949-45.953s20.609-45.953 45.953-45.953c3.1992 0 5.7617-2.5586 5.7617-5.7617 0-3.1992-2.5586-5.7617-5.7617-5.7617-31.742 0.003906-57.473 25.734-57.473 57.477s25.73 57.473 57.473 57.473z"/>
 </g>
</svg>
