<?xml version="1.0" encoding="UTF-8"?>
<svg id="spinner" width="128pt" height="128pt" version="1.1" viewBox="0 0 128 128" xmlns="http://www.w3.org/2000/svg">
 <g fill="#fff">
  <path d="m35.836 41.637c5.9141 3.4141 0.79297 12.281-5.1211 8.8672-5.9102-3.4102-0.78906-12.281 5.1211-8.8672"/>
  <path d="m50.512 30.73c3.4102 5.9102-5.457 11.031-8.8711 5.1172-3.4102-5.9102 5.457-11.031 8.8711-5.1172"/>
  <path d="m64 23.039h-5.1211v10.238h5.1211v0.003906c8.1484 0 15.961 3.2344 21.723 8.9961 5.7617 5.7617 8.9961 13.574 8.9961 21.723s-3.2344 15.961-8.9961 21.723c-5.7617 5.7617-13.574 8.9961-21.723 8.9961s-15.961-3.2344-21.723-8.9961c-5.7617-5.7617-8.9961-13.574-8.9961-21.723v-5.1211h-10.242v5.1211c0 10.863 4.3164 21.281 11.996 28.965 7.6836 7.6797 18.102 11.996 28.965 11.996s21.281-4.3164 28.965-11.996c7.6797-7.6836 11.996-18.102 11.996-28.965s-4.3164-21.281-11.996-28.965c-7.6836-7.6797-18.102-11.996-28.965-11.996z"/>
 </g>
</svg>
