<?xml version="1.0" encoding="UTF-8"?>
<svg id="wheel1" width="128pt" height="128pt" version="1.1" viewBox="0 0 128 128" xmlns="http://www.w3.org/2000/svg">
 <path d="m64 11.664c-28.859 0-52.336 23.477-52.336 52.336s23.477 52.336 52.336 52.336 52.34-23.477 52.34-52.336-23.48-52.336-52.34-52.336zm-32.609 52.336c0-17.98 14.629-32.609 32.609-32.609 17.984 0 32.609 14.629 32.609 32.609s-14.629 32.609-32.609 32.609-32.609-14.629-32.609-32.609zm34.836 49.609v-14.406c17.977-1.125 32.344-15.773 33.02-33.867h14.383c-0.69141 26.027-21.488 47.121-47.402 48.273z" fill="#fff"/>
</svg>
