<?xml version="1.0" encoding="UTF-8"?>
<svg id="wheel2" width="128pt" height="128pt" version="1.1" viewBox="0 0 128 128" xmlns="http://www.w3.org/2000/svg">
 <path d="m64 11.664c-28.859 0-52.336 23.477-52.336 52.336s23.477 52.336 52.336 52.336 52.336-23.477 52.336-52.336-23.477-52.336-52.336-52.336zm-32.609 52.336c0-17.98 14.629-32.609 32.609-32.609s32.609 14.629 32.609 32.609-14.629 32.609-32.609 32.609-32.609-14.629-32.609-32.609zm34.836 49.609v-14.406c18.418-1.1562 33.055-16.5 33.055-35.203 0-19.453-15.828-35.281-35.281-35.281s-35.281 15.828-35.281 35.281c0 9.25 3.582 17.672 9.4219 23.969l-10.164 10.164c-8.4453-8.9062-13.641-20.922-13.641-34.133 0-27.383 22.281-49.664 49.664-49.664 27.387 0 49.664 22.281 49.664 49.664 0 26.637-21.082 48.438-47.438 49.609z" fill="#fff"/>
</svg>
