<?xml version="1.0" encoding="UTF-8"?>
<svg id="wheel3" width="128pt" height="128pt" version="1.1" viewBox="0 0 128 128" xmlns="http://www.w3.org/2000/svg">
 <path d="m127.74 59.793c-1.1016-22.848-14.945-44.555-35.871-54.055-22.59-10.258-49.98-5.9766-68.809 9.9609-17.887 15.137-26.285 39.547-21.184 62.441 5.0625 22.727 22.402 41.168 44.984 47.203 26.699 7.1367 51.086-5.4883 66.082-27.461-13.602 18.148-34.109 30.137-57.355 26.117-22.895-3.9492-41.691-21.387-46.922-44.066-5.5781-24.16 5.5742-49.473 27.129-61.723 22.344-12.703 53.301-8.0117 68.18 13.77 3.7109 5.4297 6.3125 11.684 7.668 18.105 1.1562 5.4492 0.67188 10.898 1.4727 16.34 0.70703 4.7852 4.9453 11.445 10.469 7.8633 4.7812-3.1016 4.4648-9.5625 4.1562-14.496-0.066406-1.3711 0.17188 2.7422 0 0" fill="#fff" fill-rule="evenodd"/>
</svg>
